<?xml version="1.0" encoding="UTF-8" standalone="no"?>
<!-- Created with Inkscape (http://www.inkscape.org/) -->

<svg
   xmlns:dc="http://purl.org/dc/elements/1.1/"
   xmlns:cc="http://creativecommons.org/ns#"
   xmlns:rdf="http://www.w3.org/1999/02/22-rdf-syntax-ns#"
   xmlns:svg="http://www.w3.org/2000/svg"
   xmlns="http://www.w3.org/2000/svg"
   xmlns:sodipodi="http://sodipodi.sourceforge.net/DTD/sodipodi-0.dtd"
   xmlns:inkscape="http://www.inkscape.org/namespaces/inkscape"
   width="51.278015mm"
   height="9.4827499mm"
   viewBox="0 0 51.278015 9.4827499"
   version="1.1"
   id="svg3850"
   inkscape:version="0.92.4 (5da689c313, 2019-01-14)"
   sodipodi:docname="impex-trading.svg">
  <defs
     id="defs3844" />
  <sodipodi:namedview
     id="base"
     pagecolor="#ffffff"
     bordercolor="#666666"
     borderopacity="1.0"
     inkscape:pageopacity="0.0"
     inkscape:pageshadow="2"
     inkscape:zoom="3.491358"
     inkscape:cx="121.91039"
     inkscape:cy="-9.2245129"
     inkscape:document-units="mm"
     inkscape:current-layer="layer1"
     showgrid="false"
     fit-margin-top="0"
     fit-margin-left="0"
     fit-margin-right="0"
     fit-margin-bottom="0"
     inkscape:window-width="1920"
     inkscape:window-height="1001"
     inkscape:window-x="-9"
     inkscape:window-y="-9"
     inkscape:window-maximized="1" />
  <metadata
     id="metadata3847">
    <rdf:RDF>
      <cc:Work
         rdf:about="">
        <dc:format>image/svg+xml</dc:format>
        <dc:type
           rdf:resource="http://purl.org/dc/dcmitype/StillImage" />
        <dc:title></dc:title>
      </cc:Work>
    </rdf:RDF>
  </metadata>
  <g
     inkscape:label="Ebene 1"
     inkscape:groupmode="layer"
     id="layer1"
     transform="translate(-70.366951,-150.89505)">
    <path
       d="m 103.91082,65.588364 c -0.10936,0.176389 -0.4833,0.479778 -1.1183,0.910167 -0.50448,0.342194 -0.80786,0.553861 -0.90664,0.631472 -0.12347,0.215194 -0.18345,0.402167 -0.18345,0.560917 0,0.151694 0.067,0.289277 0.20461,0.41275 0.13759,0.119944 0.30692,0.183444 0.508,0.183444 0.19756,0 0.39159,-0.04939 0.57856,-0.144639 0.18344,-0.09878 0.34925,-0.239889 0.49036,-0.426861 0.14111,-0.183444 0.23636,-0.398639 0.29281,-0.638528 0.0529,-0.239889 0.0847,-0.560916 0.0847,-0.963083 0.004,-0.09525 0.0212,-0.268111 0.0494,-0.525639 z m 0.33514,-2.582333 c -0.27517,0 -0.51153,0.07056 -0.70555,0.215194 -0.19756,0.141111 -0.381,0.409222 -0.55387,0.800806 -0.17638,0.465666 -0.26458,0.871361 -0.26458,1.213555 0,0.127 0.0318,0.229306 0.0988,0.306917 0.0635,0.07761 0.13405,0.116417 0.20461,0.116417 0.10583,0 0.24342,-0.05292 0.41628,-0.165806 0.16933,-0.109361 0.31044,-0.250472 0.42333,-0.419806 0.10936,-0.172861 0.22578,-0.472722 0.3422,-0.903111 0.11641,-0.381 0.2293,-0.762 0.34219,-1.143 -0.0953,-0.01411 -0.19403,-0.02117 -0.30339,-0.02117 z m -36.688887,0 c -0.127,0 -0.27517,0.06703 -0.4445,0.197555 -0.28575,0.22225 -0.49389,0.416278 -0.63147,0.582084 -0.11289,0.201083 -0.21873,0.493888 -0.31045,0.881944 -0.0847,0.3175 -0.1658,0.638528 -0.24694,0.959556 0.20814,0.197555 0.42686,0.299861 0.65969,0.299861 0.33867,0 0.64206,-0.278695 0.9137,-0.836084 0.27164,-0.553861 0.40569,-1.104194 0.40569,-1.640416 0,-0.151695 -0.0318,-0.264584 -0.0953,-0.338667 -0.06,-0.07056 -0.14464,-0.105833 -0.25047,-0.105833 z m 21.230166,-0.03528 c -0.25753,0 -0.483306,0.07055 -0.677333,0.215194 -0.197557,0.141111 -0.381,0.405695 -0.553863,0.79375 -0.17286,0.384528 -0.261054,0.769056 -0.261054,1.153584 0,0.194027 0.02822,0.324555 0.08114,0.395111 0.05645,0.07056 0.123473,0.109361 0.20814,0.109361 0.1905,0 0.402167,-0.109361 0.635,-0.328084 0.229306,-0.215194 0.402167,-0.532694 0.515056,-0.948972 0.127,-0.455083 0.257527,-0.906639 0.384527,-1.358194 -0.11289,-0.02117 -0.22225,-0.03175 -0.33161,-0.03175 z m 4.067527,-0.112889 c -0.183444,0 -0.36689,0.07408 -0.55386,0.225778 -0.183447,0.148166 -0.36689,0.451555 -0.546807,0.906639 -0.183443,0.458611 -0.27164,0.853722 -0.27164,1.192388 0,0.137584 0.03175,0.243417 0.102307,0.324556 0.06703,0.08114 0.14111,0.119944 0.218723,0.119944 0.112887,0 0.232833,-0.04233 0.359833,-0.130527 0.254,-0.179917 0.4445,-0.377473 0.567971,-0.592667 0.0882,-0.165806 0.204613,-0.543278 0.345723,-1.143 0.07056,-0.278694 0.14111,-0.560917 0.215193,-0.843139 -0.197553,-0.03881 -0.342193,-0.05997 -0.437443,-0.05997 z m -21.851053,-0.09525 c -0.0917,0 -0.22225,0.04233 -0.39159,0.130528 -0.0564,0.09172 -0.13052,0.211666 -0.21872,0.363361 -0.14464,0.402166 -0.24694,0.740833 -0.30339,1.012472 0.40217,-0.211667 0.71261,-0.426861 0.94192,-0.638528 0.17286,-0.197555 0.25753,-0.373944 0.25753,-0.525639 0,-0.109361 -0.0282,-0.194027 -0.0811,-0.254 -0.0529,-0.05997 -0.11995,-0.08819 -0.20461,-0.08819 z m 0.37747,-0.575028 c 0.24694,0 0.44097,0.0635 0.57856,0.194028 0.13758,0.130528 0.20813,0.303389 0.20813,0.522111 0,0.22225 -0.0776,0.437445 -0.22577,0.645583 -0.1517,0.211667 -0.39864,0.416278 -0.74436,0.613834 -0.22225,0.127 -0.61384,0.313972 -1.17475,0.567972 -0.0212,0.127 -0.0318,0.268111 -0.0318,0.41275 0,0.201083 0.0247,0.335139 0.0776,0.398639 0.0529,0.06703 0.13052,0.09878 0.23636,0.09878 0.11289,0 0.23989,-0.03175 0.381,-0.09878 0.20108,-0.09172 0.52564,-0.289278 0.97014,-0.592667 0.0776,0.105834 0.15522,0.208139 0.23283,0.313972 -0.80786,0.776112 -1.49931,1.167695 -2.07433,1.167695 -0.254,0 -0.44803,-0.08467 -0.58209,-0.254 -0.13405,-0.169333 -0.20108,-0.430389 -0.20108,-0.783167 0,-0.684389 0.20814,-1.36525 0.62442,-2.039055 0.47625,-0.779639 1.05127,-1.167695 1.72508,-1.167695 z m 27.664833,-0.0071 c 0.08819,0 0.162277,0.02469 0.22225,0.06703 0.05997,0.04586 0.09172,0.09878 0.09172,0.165806 0,0.03175 -0.01765,0.112889 -0.05292,0.243417 -0.0635,0.250472 -0.123473,0.500944 -0.183446,0.747889 0.20814,-0.335139 0.567973,-0.663223 1.0795,-0.98425 0.24695,-0.15875 0.46214,-0.239889 0.64558,-0.239889 0.1517,0 0.27164,0.05292 0.35984,0.151694 0.0847,0.09878 0.13053,0.232833 0.13053,0.405695 0,0.102305 -0.0177,0.225777 -0.0529,0.373944 -0.0459,0.183444 -0.17287,0.617361 -0.38453,1.298222 -0.19403,0.624417 -0.29281,1.037167 -0.29281,1.23825 0,0.04586 0,0.07408 0.007,0.08114 0.004,0.0071 0.004,0.01058 0,0.01058 0.067,0 0.18698,-0.07761 0.36337,-0.232833 0.14111,-0.130528 0.31044,-0.254 0.50094,-0.370417 0.0635,0.08819 0.13053,0.179917 0.19756,0.268111 -0.31045,0.359833 -0.61031,0.613833 -0.89959,0.765528 -0.24341,0.179917 -0.44097,0.268111 -0.58914,0.268111 -0.15169,0 -0.268109,-0.05292 -0.349249,-0.15875 -0.08114,-0.105833 -0.123473,-0.264583 -0.123473,-0.479778 0,-0.289278 0.17639,-0.994833 0.532702,-2.120194 0.0988,-0.363361 0.14816,-0.575028 0.14816,-0.631472 0,-0.03881 -0.0247,-0.05644 -0.0776,-0.05644 -0.1023,0 -0.24694,0.05997 -0.430386,0.179916 -0.282223,0.186972 -0.550333,0.419806 -0.797279,0.6985 -0.05997,0.130528 -0.127,0.377472 -0.211667,0.733778 -0.130527,0.567972 -0.264583,1.139472 -0.39511,1.707444 -0.292807,0 -0.58561,0 -0.878417,0 0.134057,-0.543277 0.246944,-1.030111 0.345723,-1.4605 0.137584,-0.592666 0.278694,-1.185333 0.416277,-1.778 0.0141,-0.06703 0.02469,-0.109361 0.02469,-0.130527 0,-0.01764 0,-0.02822 0,-0.02822 -0.02822,0 -0.08467,0.03175 -0.17286,0.09172 -0.17639,0.116416 -0.373944,0.275166 -0.585611,0.47625 -0.0882,-0.08819 -0.172865,-0.172861 -0.257532,-0.261055 0.423333,-0.430389 0.762,-0.709083 1.016,-0.843139 0.250473,-0.130528 0.469196,-0.197555 0.65264,-0.197555 z m -38.844363,0 c 0.0882,0 0.16228,0.02469 0.2152,0.07056 0.0564,0.04586 0.0811,0.109361 0.0811,0.183445 0,0.07056 -0.0247,0.201083 -0.0776,0.388055 -0.0741,0.264584 -0.12348,0.430389 -0.14817,0.500945 0.65969,-0.762 1.19944,-1.143 1.62278,-1.143 0.13405,0 0.23636,0.03881 0.30691,0.116416 0.0741,0.07761 0.10936,0.186973 0.10936,0.331612 0,0.141111 -0.0459,0.331611 -0.14111,0.5715 0.24695,-0.356303 0.51153,-0.613831 0.78317,-0.776108 0.27517,-0.162278 0.49389,-0.243417 0.65969,-0.243417 0.15875,0 0.28575,0.04939 0.37748,0.141111 0.0917,0.09525 0.13758,0.232833 0.13758,0.41275 0,0.09878 -0.0176,0.215195 -0.0494,0.345722 -0.0318,0.130528 -0.14817,0.525639 -0.34925,1.178278 -0.24342,0.797278 -0.36689,1.266472 -0.36689,1.414639 0,0.04233 0.0106,0.0635 0.0317,0.0635 0.0423,0 0.0847,-0.01764 0.13053,-0.04586 0.16933,-0.119944 0.37747,-0.28575 0.61736,-0.493889 0.0847,0.09172 0.16581,0.183445 0.25047,0.271639 -0.0811,0.09172 -0.20461,0.186972 -0.37041,0.296333 -0.27517,0.28575 -0.50095,0.465667 -0.67734,0.536223 -0.12347,0.105833 -0.254,0.15875 -0.40216,0.15875 -0.12348,0 -0.23284,-0.05644 -0.3175,-0.169334 -0.0882,-0.109361 -0.13406,-0.257527 -0.13406,-0.4445 0,-0.15875 0.0247,-0.338666 0.067,-0.543277 0.0459,-0.208139 0.17639,-0.659694 0.38805,-1.358194 0.15875,-0.518584 0.23636,-0.829028 0.23636,-0.927806 0,-0.04233 -0.0141,-0.0635 -0.0459,-0.0635 -0.06,0 -0.13052,0.01411 -0.21519,0.04233 -0.28928,0.194028 -0.52211,0.405695 -0.6985,0.631472 -0.11642,0.151695 -0.21872,0.395112 -0.31044,0.733778 -0.20814,0.762 -0.37042,1.411111 -0.48331,1.950861 -0.28222,0 -0.56444,0 -0.84667,0 0.23636,-0.987777 0.4692,-1.979083 0.70556,-2.966861 0.0459,-0.201083 0.0705,-0.313972 0.0705,-0.331611 0,-0.02469 -0.004,-0.04233 -0.0106,-0.04939 -0.007,-0.0071 -0.0176,-0.01058 -0.0388,-0.01058 -0.06,0 -0.19756,0.0635 -0.41275,0.194028 -0.24695,0.204611 -0.43745,0.402166 -0.56798,0.599722 -0.13053,0.197556 -0.23989,0.500944 -0.33514,0.913694 -0.127,0.550334 -0.254,1.100667 -0.381,1.651 -0.28222,0 -0.56797,0 -0.85019,0 0.18344,-0.804333 0.37042,-1.608666 0.55386,-2.416527 0.14111,-0.589139 0.21519,-0.906639 0.21519,-0.9525 0,-0.01058 0.004,-0.01411 0.0106,-0.01411 -0.0952,0 -0.34925,0.176389 -0.762,0.529167 -0.0741,-0.09525 -0.14817,-0.194028 -0.22225,-0.289278 0.33161,-0.352778 0.64558,-0.603251 0.93839,-0.758473 0.2928,-0.151694 0.52916,-0.229305 0.70555,-0.229305 z m 36.392556,-0.0035 c 0.123474,0 0.22225,0.03175 0.296334,0.09172 0.07408,0.05997 0.11289,0.141112 0.11289,0.243417 0,0.09878 -0.102307,0.490361 -0.310444,1.17475 -0.324556,1.093611 -0.486833,1.749778 -0.486833,1.9685 0,0.02469 0,0.03881 0.0071,0.04586 0.0035,0.0071 0.0035,0.01058 -0.0035,0.01058 0.07408,0 0.33161,-0.1905 0.772583,-0.575028 0.09525,0.09172 0.186974,0.183445 0.282224,0.271639 -0.455084,0.451556 -0.790224,0.737306 -0.998363,0.853723 -0.208137,0.119944 -0.384527,0.176388 -0.529167,0.176388 -0.137583,0 -0.246944,-0.04233 -0.328083,-0.130527 -0.08467,-0.08467 -0.123471,-0.201084 -0.123471,-0.34925 0,-0.398639 0.23636,-1.358195 0.709084,-2.875139 0.0071,-0.03175 0.01765,-0.0635 0.02117,-0.09172 0.0035,-0.02117 0.0035,-0.04233 0.0071,-0.0635 -0.02117,0.0035 -0.04233,0.0071 -0.0635,0.01058 -0.02822,0.01058 -0.05997,0.02822 -0.09525,0.04939 -0.06703,0.04233 -0.257527,0.204611 -0.5715,0.483305 -0.102304,-0.08114 -0.204611,-0.15875 -0.310444,-0.239889 0.33514,-0.398638 0.638527,-0.677333 0.910167,-0.829027 0.26811,-0.148167 0.504473,-0.225778 0.702027,-0.225778 z m -30.321246,0 c 0.1023,0 0.1905,0.02822 0.254,0.08467 0.067,0.05997 0.1023,0.137584 0.1023,0.239889 0,0.09525 -0.0106,0.194028 -0.0353,0.296334 -0.0212,0.102305 -0.0847,0.289277 -0.18697,0.560916 0.37042,-0.458611 0.64558,-0.744361 0.82903,-0.860777 0.31044,-0.201084 0.59972,-0.303389 0.86078,-0.303389 0.19402,0 0.35277,0.08819 0.47977,0.257527 0.127,0.172862 0.1905,0.419806 0.1905,0.737306 0,0.772583 -0.24341,1.506361 -0.73377,2.204861 -0.49036,0.702028 -1.03717,1.051278 -1.64748,1.051278 -0.24341,0 -0.44802,-0.05997 -0.6103,-0.183445 -0.127,0.500945 -0.254,1.005417 -0.381,1.506362 -0.0141,0.05644 -0.0212,0.112888 -0.0212,0.165805 0,0.08114 0.0423,0.151695 0.13053,0.211667 0.0917,0.03881 0.37394,0.08819 0.85019,0.144639 -0.0282,0.137583 -0.0564,0.271638 -0.0847,0.409222 -0.56092,-0.04233 -0.98425,-0.05997 -1.26647,-0.05997 -0.29281,0 -0.70908,0.01764 -1.24883,0.05997 0.0247,-0.137577 0.0529,-0.275161 0.0776,-0.416272 0.26105,-0.02469 0.43744,-0.08467 0.53269,-0.176389 0.0917,-0.09172 0.17992,-0.28575 0.26106,-0.589139 0.27516,-1.157111 0.5468,-2.310694 0.82197,-3.464277 0.15875,-0.652639 0.23636,-1.012473 0.23636,-1.0795 0,-0.01764 -0.007,-0.02469 -0.0212,-0.02469 -0.10583,0 -0.37042,0.197555 -0.7867,0.599722 -0.0917,-0.09172 -0.18696,-0.183445 -0.28221,-0.278695 0.31044,-0.391583 0.6103,-0.670278 0.90311,-0.839611 0.2928,-0.169333 0.55386,-0.254 0.77611,-0.254 z m 39.369997,-0.09525 c -0.23636,0.8255 -0.45861,1.61925 -0.67028,2.377722 -0.10936,0.465667 -0.1905,0.885473 -0.24694,1.252361 -0.0247,0.15875 -0.0388,0.366889 -0.0423,0.624417 -0.007,0.455083 -0.06,0.8255 -0.15522,1.107722 -0.13759,0.402167 -0.39511,0.726723 -0.77259,0.970139 -0.37394,0.243417 -0.81844,0.366889 -1.32997,0.366889 -0.44803,0 -0.8008,-0.105833 -1.06539,-0.321028 -0.26105,-0.211666 -0.39158,-0.462139 -0.39158,-0.747889 0,-0.275166 0.0953,-0.504472 0.28928,-0.680861 0.1658,-0.229305 0.48683,-0.462139 0.95602,-0.702027 0.0177,-0.01058 0.0388,-0.01764 0.06,-0.02822 -0.003,0 -0.007,0 -0.0106,0 -0.1023,-0.02469 -0.19402,-0.08467 -0.27516,-0.179917 -0.10584,-0.127 -0.15875,-0.292806 -0.15875,-0.493889 0,-0.589139 0.17639,-1.17475 0.52916,-1.753305 0.35278,-0.578556 0.77611,-1.012473 1.27,-1.30175 0.31398,-0.183445 0.70556,-0.275167 1.17123,-0.275167 0.0705,0 0.15522,0.0035 0.254,0.0071 0.0141,-0.03881 0.0282,-0.08114 0.0423,-0.123472 0.18344,-0.03175 0.36336,-0.06703 0.5468,-0.09878 z m -15.437554,-0.02822 c -0.119947,0.433916 -0.236363,0.867833 -0.356307,1.30175 -0.14111,0.472722 -0.27164,1.012472 -0.39511,1.615722 -0.06703,0.324555 -0.09878,0.532694 -0.09878,0.624417 0,0.03528 0.0035,0.04939 0.0141,0.04939 0.03528,0 0.09878,-0.02822 0.1905,-0.08114 0.18697,-0.109362 0.391583,-0.257528 0.61736,-0.4445 0.08114,0.09525 0.162277,0.1905 0.243417,0.28575 -0.377473,0.363361 -0.62089,0.582083 -0.73025,0.656166 -0.20814,0.141111 -0.405694,0.246945 -0.596194,0.313972 -0.127,0.04586 -0.254,0.07056 -0.381,0.07056 -0.109363,0 -0.1905,-0.02822 -0.250473,-0.08114 -0.05997,-0.05644 -0.09172,-0.134055 -0.09172,-0.232833 0,-0.05997 0.0141,-0.130528 0.04233,-0.218722 0.05997,-0.169334 0.123473,-0.342195 0.183446,-0.511528 -0.15875,0.303389 -0.41275,0.550333 -0.765529,0.737306 -0.275167,0.201083 -0.518583,0.299861 -0.73025,0.299861 -0.215194,0 -0.384527,-0.127 -0.515054,-0.381 -0.130529,-0.08467 -0.197556,-0.275167 -0.197556,-0.575028 0,-0.342195 0.09172,-0.723194 0.271639,-1.135944 0.183444,-0.416278 0.426861,-0.790223 0.73025,-1.128889 0.306917,-0.338667 0.631471,-0.589139 0.970138,-0.747889 0.268112,-0.127 0.610306,-0.186972 1.019529,-0.186972 0.09878,0 0.183444,0.0035 0.254,0.01764 0.03528,-0.05644 0.07055,-0.112889 0.102304,-0.169334 0.15875,-0.02822 0.313973,-0.05292 0.469196,-0.07761 z m -13.783033,-0.06703 c 0.13053,0 0.23637,0.03881 0.32103,0.116417 0.0811,0.08114 0.12347,0.176388 0.12347,0.289277 0,0.127 -0.067,0.239889 -0.20461,0.335139 -0.0564,0.04233 -0.23636,0.07055 -0.52916,0.09172 -0.21167,0.01058 -0.39511,0.08114 -0.55034,0.208139 -0.26458,0.215195 -0.51858,0.529167 -0.762,0.934861 0.0988,0.451556 0.19756,0.903112 0.29634,1.354667 0.13052,0.610306 0.26105,1.054806 0.39511,1.340556 0.13758,0.282222 0.29986,0.500944 0.49036,0.649111 0.0988,0.07408 0.20814,0.112889 0.32455,0.112889 0.15875,0 0.27164,-0.09878 0.34925,-0.299861 0.0741,-0.197556 0.20109,-0.299862 0.37748,-0.299862 0.0917,0 0.16933,0.03528 0.23636,0.109362 0.0635,0.07056 0.0988,0.155222 0.0988,0.257527 0,0.183445 -0.0988,0.345723 -0.29633,0.490361 -0.19403,0.141112 -0.44098,0.215195 -0.73731,0.215195 -0.32103,0 -0.62794,-0.09878 -0.91369,-0.299861 -0.28928,-0.197556 -0.53623,-0.508 -0.74084,-0.934861 -0.20461,-0.426861 -0.37747,-1.072445 -0.52211,-1.933223 0.0176,0.06703 -0.0353,0.194028 -0.16581,0.381 -0.40216,0.560917 -0.71614,0.924278 -0.94544,1.093612 -0.22931,0.165805 -0.45156,0.250472 -0.67381,0.250472 -0.16228,0 -0.29986,-0.04586 -0.40922,-0.137584 -0.10936,-0.09525 -0.16581,-0.208138 -0.16581,-0.345722 0,-0.109361 0.0388,-0.208139 0.11642,-0.289278 0.0776,-0.08467 0.16933,-0.127 0.27517,-0.127 0.11289,0 0.21166,0.05292 0.2928,0.15875 0.0776,0.09525 0.13053,0.141112 0.16228,0.141112 0.0282,0 0.06,-0.0071 0.0953,-0.02822 0.0706,-0.03881 0.16933,-0.123473 0.29281,-0.261056 0.18697,-0.201083 0.39158,-0.388056 0.60677,-0.553861 0.127,-0.261056 0.25753,-0.518583 0.38453,-0.776111 -0.0635,-0.278695 -0.127,-0.557389 -0.1905,-0.836083 -0.0459,-0.22225 -0.0882,-0.359834 -0.127,-0.405695 -0.0353,-0.04939 -0.0706,-0.07408 -0.1023,-0.07408 -0.0282,0 -0.0635,0.01411 -0.10936,0.04233 -0.20109,0.112889 -0.39512,0.236361 -0.58209,0.370416 -0.0705,-0.09525 -0.14464,-0.194027 -0.21872,-0.292805 0.36336,-0.324556 0.66675,-0.553861 0.92075,-0.684389 0.17992,-0.09878 0.32103,-0.148167 0.41628,-0.148167 0.15875,0 0.28222,0.07408 0.37394,0.22225 0.10936,0.179917 0.20109,0.532695 0.27517,1.054806 0.30339,-0.546806 0.6103,-0.931333 0.92428,-1.153583 0.31044,-0.225778 0.57502,-0.338667 0.79727,-0.338667 z m 10.205866,-0.02469 c 0.119944,0 0.22225,0.04233 0.303387,0.119944 0.08467,0.08114 0.127,0.172861 0.127,0.278695 0,0.109361 -0.0388,0.201083 -0.116417,0.275166 -0.07761,0.07408 -0.243416,0.155223 -0.50447,0.239889 -0.218723,0.07408 -0.39864,0.162278 -0.536223,0.268111 -0.137583,0.102306 -0.292807,0.264584 -0.45861,0.479778 -0.169334,0.218722 -0.285753,0.405695 -0.352783,0.567972 -0.067,0.162278 -0.17286,0.543278 -0.31044,1.143 -0.0776,0.324556 -0.15522,0.652639 -0.22931,0.977195 -0.2928,0 -0.58561,0 -0.87841,0 0.12347,-0.483306 0.24694,-0.963084 0.37041,-1.446389 0.13406,-0.553862 0.26106,-1.121834 0.38806,-1.707445 0.0212,-0.109361 0.0318,-0.179917 0.0318,-0.208139 0,-0.01058 0,-0.01764 -0.007,-0.01764 -0.0247,0 -0.0811,0.02822 -0.16933,0.08467 -0.0847,0.05644 -0.2787,0.218723 -0.57856,0.483306 -0.0776,-0.08467 -0.15875,-0.172861 -0.23636,-0.257528 0.32808,-0.370417 0.64558,-0.638528 0.95603,-0.807861 0.31044,-0.165806 0.55386,-0.246944 0.73025,-0.246944 0.08114,0 0.148166,0.02117 0.20461,0.06703 0.05292,0.04233 0.08114,0.09878 0.08114,0.169333 0,0.04586 -0.02469,0.176389 -0.07761,0.391583 -0.05997,0.22225 -0.123471,0.448028 -0.18697,0.670278 0.197593,-0.472722 0.497456,-0.885472 0.906676,-1.245305 0.20814,-0.183444 0.391584,-0.278694 0.54328,-0.278694 z M 58.727043,60.603599 c -0.0353,0.144639 -0.0705,0.289278 -0.10583,0.437445 -0.38453,0.02469 -0.61384,0.05292 -0.68439,0.08819 -0.0917,0.05645 -0.16228,0.123472 -0.20108,0.194028 -0.0564,0.102305 -0.22578,0.691444 -0.51153,1.760361 -0.0917,0.328083 -0.32773,1.266472 -0.71155,2.818694 0.16333,0.05292 0.44061,0.07056 0.83149,0.0635 -0.0353,0.134056 -0.067,0.271639 -0.1023,0.409222 -0.1517,0.0071 -0.38912,-0.0071 -0.70626,-0.03528 -0.20144,-0.01764 -0.44345,-0.02822 -0.72532,-0.02822 -0.29421,0 -0.5909,0.01764 -0.89076,0.04939 -0.10019,0.01411 -0.20038,0.02822 -0.30057,0.04233 0,0 0,0 0,0 0.0243,-0.144639 0.049,-0.28575 0.0737,-0.426861 0.37959,-0.05997 0.64453,-0.123472 0.79481,-0.194027 0.0501,-0.02469 0.0928,-0.05997 0.12806,-0.102306 0.0198,-0.02469 0.0557,-0.116416 0.10795,-0.278694 0.0519,-0.162278 0.23813,-0.850195 0.55774,-2.067278 0.0921,-0.3175 0.28223,-1.04775 0.5708,-2.187222 -0.14464,-0.0035 -0.40958,0.02469 -0.79446,0.09172 0.0367,-0.141111 0.0734,-0.28575 0.11042,-0.426861 0.17039,-0.04586 0.32526,-0.07761 0.46426,-0.09172 0.13934,-0.01411 0.45437,-0.02822 0.94826,-0.03881 0.44098,-0.01411 0.8255,-0.03881 1.14653,-0.07761 z m 38.410446,-0.409222 c 0.12347,0 0.225777,0.03881 0.310444,0.123472 0.08114,0.08467 0.123473,0.186972 0.123473,0.310445 0,0.15875 -0.05645,0.303389 -0.169334,0.426861 -0.116416,0.123472 -0.246946,0.183444 -0.398639,0.183444 -0.123474,0 -0.22225,-0.03881 -0.30339,-0.123472 -0.08114,-0.08467 -0.119944,-0.1905 -0.119944,-0.324556 0,-0.162277 0.05292,-0.303388 0.162277,-0.419805 0.109363,-0.119945 0.23989,-0.176389 0.395113,-0.176389 z M 84.525683,59.816905 c 0.12347,0 0.22578,0.04586 0.30692,0.134055 0.0776,0.08819 0.11994,0.201084 0.11994,0.338667 0,0.268111 -0.14111,0.497417 -0.41628,0.684389 -0.27869,0.186972 -0.72672,0.278694 -1.34408,0.278694 -0.21872,0 -0.41981,-0.0071 -0.60678,-0.02822 -0.0141,0.04233 -0.10583,0.398639 -0.27164,1.068917 -0.13758,0.536222 -0.27164,1.075972 -0.40922,1.615722 -0.0847,0.331611 -0.16933,0.663222 -0.254,0.998361 -0.0811,0.335139 -0.1658,0.670278 -0.25047,1.005417 0.14464,0.01411 0.28222,0.02117 0.42333,0.02117 0.20109,0 0.45509,-0.02469 0.75847,-0.07761 -0.0282,0.144639 -0.0564,0.292805 -0.0847,0.440972 -0.26105,0.05644 -0.46566,0.08467 -0.61383,0.08467 -0.13758,0 -0.36336,-0.01411 -0.67733,-0.04233 -0.21872,-0.01764 -0.41628,-0.02822 -0.59267,-0.02822 -0.30339,0 -0.65616,0.02822 -1.06186,0.08467 0.0247,-0.144639 0.0529,-0.292806 0.0811,-0.437444 0.34572,-0.03528 0.58208,-0.09525 0.71261,-0.186973 0.0917,-0.05997 0.16934,-0.172861 0.23636,-0.331611 0.067,-0.15875 0.23284,-0.754944 0.49389,-1.788583 0.19756,-0.818444 0.39864,-1.636889 0.59972,-2.458861 0.0106,-0.0071 0.0212,-0.01411 0.0318,-0.02117 -0.12347,-0.0035 -0.23283,-0.0071 -0.32103,-0.0071 -0.56444,0 -1.00894,0.05997 -1.33702,0.179917 -0.32456,0.116416 -0.56797,0.289277 -0.72672,0.508 -0.15875,0.22225 -0.23636,0.458611 -0.23636,0.712611 0,0.08819 0.0106,0.155222 0.0282,0.201083 0.0318,0.06703 0.0741,0.148167 0.13758,0.239889 0.1658,0.155222 0.25047,0.292806 0.25047,0.41275 0,0.112889 -0.0423,0.204611 -0.12347,0.282222 -0.0811,0.07761 -0.17992,0.116417 -0.29633,0.116417 -0.16581,0 -0.29987,-0.07408 -0.39864,-0.229306 -0.13053,-0.197553 -0.19403,-0.448025 -0.19403,-0.751414 0,-0.398639 0.12347,-0.783166 0.37042,-1.157111 0.24694,-0.370416 0.58208,-0.659694 1.01247,-0.864305 0.43039,-0.201084 0.94545,-0.303389 1.55222,-0.303389 0.28223,0 0.73731,0.04233 1.36173,0.123472 0.43038,0.05644 0.74436,0.08467 0.93838,0.08467 0.17639,0 0.29634,-0.02469 0.35631,-0.07408 0.06,-0.04939 0.0882,-0.109361 0.0882,-0.1905 0,-0.01058 -0.004,-0.04586 -0.0106,-0.09878 -0.0106,-0.07055 -0.0177,-0.119944 -0.0177,-0.148166 0,-0.112889 0.0388,-0.204611 0.11289,-0.278695 0.0741,-0.07408 0.1658,-0.112889 0.27164,-0.112889 z m 11.401776,-0.264584 c 0.151697,0 0.275167,0.03881 0.370417,0.123473 0.09878,0.08467 0.14464,0.1905 0.14464,0.3175 0,0.123472 -0.04586,0.225777 -0.134057,0.303389 -0.08819,0.08114 -0.208137,0.119944 -0.352776,0.119944 -0.08819,0 -0.23989,-0.01411 -0.451557,-0.04586 -0.215193,-0.03175 -0.356304,-0.04939 -0.42686,-0.04939 -0.08467,0 -0.15875,0.02822 -0.225777,0.08114 -0.06703,0.05292 -0.141113,0.194028 -0.218723,0.423333 -0.03881,0.112889 -0.148167,0.546806 -0.324557,1.294694 -0.22225,0.938389 -0.4445,1.876778 -0.66322,2.815167 -0.07761,0.324556 -0.11289,0.53975 -0.11289,0.642056 0,0.05292 0.01058,0.08114 0.03528,0.08114 0.03881,0 0.105833,-0.02117 0.204613,-0.05997 0.0635,-0.04586 0.271637,-0.194028 0.63147,-0.4445 0.06703,0.09525 0.137584,0.194028 0.20814,0.289278 -0.448027,0.391583 -0.77611,0.645583 -0.98425,0.765527 -0.296333,0.165806 -0.532693,0.250473 -0.71614,0.250473 -0.09878,0 -0.183443,-0.03175 -0.246943,-0.08819 -0.06703,-0.05997 -0.102307,-0.130528 -0.102307,-0.211667 0,-0.0635 0.02117,-0.15875 0.05645,-0.28575 0.05292,-0.148167 0.105833,-0.299861 0.162277,-0.448028 -0.27164,0.388056 -0.536224,0.656167 -0.800807,0.804333 -0.261054,0.148167 -0.500943,0.22225 -0.719667,0.22225 -0.201083,0 -0.36336,-0.08114 -0.49036,-0.246944 -0.130527,-0.162278 -0.194027,-0.395111 -0.194027,-0.6985 0,-0.458611 0.155221,-0.980722 0.469194,-1.566333 0.313973,-0.585611 0.663223,-1.023056 1.051277,-1.308806 0.388056,-0.282222 0.74789,-0.426861 1.0795,-0.426861 0.07408,0 0.151696,0.01058 0.236363,0.03175 0.134053,-0.560917 0.271637,-0.987778 0.41275,-1.277056 0.137583,-0.289277 0.3175,-0.536222 0.53975,-0.747888 0.218714,-0.211668 0.472714,-0.373946 0.758464,-0.486834 0.28575,-0.116417 0.553863,-0.172862 0.804333,-0.172862 z"
       style="fill:none;stroke:#000000;stroke-width:0.25400001;stroke-linecap:butt;stroke-linejoin:round;stroke-miterlimit:10;stroke-dasharray:none;stroke-opacity:1"
       id="path3821"
       inkscape:connector-curvature="0" />
    <path
       d="m 119.78582,157.0586 c -0.10936,0.17639 -0.4833,0.47978 -1.1183,0.91017 -0.50448,0.34219 -0.80786,0.55386 -0.90664,0.63147 -0.12347,0.2152 -0.18345,0.40217 -0.18345,0.56092 0,0.15169 0.067,0.28928 0.20461,0.41275 0.13759,0.11994 0.30692,0.18344 0.508,0.18344 0.19756,0 0.39159,-0.0494 0.57856,-0.14464 0.18344,-0.0988 0.34925,-0.23989 0.49036,-0.42686 0.14111,-0.18344 0.23636,-0.39864 0.29281,-0.63853 0.0529,-0.23988 0.0847,-0.56091 0.0847,-0.96308 0.004,-0.0952 0.0212,-0.26811 0.0494,-0.52564 z m 0.33514,-2.58233 c -0.27517,0 -0.51153,0.0706 -0.70555,0.21519 -0.19756,0.14111 -0.381,0.40923 -0.55387,0.80081 -0.17638,0.46567 -0.26458,0.87136 -0.26458,1.21355 0,0.127 0.0318,0.22931 0.0988,0.30692 0.0635,0.0776 0.13405,0.11642 0.20461,0.11642 0.10583,0 0.24342,-0.0529 0.41628,-0.16581 0.16933,-0.10936 0.31044,-0.25047 0.42333,-0.4198 0.10936,-0.17286 0.22578,-0.47273 0.3422,-0.90311 0.11641,-0.381 0.2293,-0.762 0.34219,-1.143 -0.0953,-0.0141 -0.19403,-0.0212 -0.30339,-0.0212 z m -36.688888,0 c -0.127,0 -0.275167,0.067 -0.4445,0.19755 -0.28575,0.22225 -0.493889,0.41628 -0.631472,0.58209 -0.112889,0.20108 -0.218723,0.49389 -0.310445,0.88194 -0.08467,0.3175 -0.165805,0.63853 -0.246944,0.95956 0.208139,0.19755 0.426861,0.29986 0.659694,0.29986 0.338667,0 0.642056,-0.2787 0.913695,-0.83608 0.271639,-0.55387 0.405694,-1.1042 0.405694,-1.64042 0,-0.1517 -0.03175,-0.26458 -0.09525,-0.33867 -0.05997,-0.0705 -0.144639,-0.10583 -0.250472,-0.10583 z m 21.230168,-0.0353 c -0.25753,0 -0.48331,0.0706 -0.67733,0.2152 -0.19756,0.14111 -0.381,0.40569 -0.55387,0.79375 -0.17286,0.38452 -0.26105,0.76905 -0.26105,1.15358 0,0.19403 0.0282,0.32455 0.0811,0.39511 0.0564,0.0706 0.12347,0.10936 0.20814,0.10936 0.1905,0 0.40217,-0.10936 0.635,-0.32808 0.22931,-0.2152 0.40217,-0.5327 0.51506,-0.94897 0.127,-0.45509 0.25752,-0.90664 0.38452,-1.3582 -0.11289,-0.0212 -0.22225,-0.0317 -0.33161,-0.0317 z m 4.06753,-0.11289 c -0.18345,0 -0.36689,0.0741 -0.55386,0.22578 -0.18345,0.14817 -0.36689,0.45156 -0.54681,0.90664 -0.18344,0.45861 -0.27164,0.85372 -0.27164,1.19239 0,0.13758 0.0318,0.24341 0.10231,0.32455 0.067,0.0811 0.14111,0.11995 0.21872,0.11995 0.11289,0 0.23283,-0.0423 0.35983,-0.13053 0.254,-0.17992 0.4445,-0.37747 0.56797,-0.59267 0.0882,-0.1658 0.20462,-0.54327 0.34573,-1.143 0.0706,-0.27869 0.14111,-0.56091 0.21519,-0.84314 -0.19755,-0.0388 -0.34219,-0.06 -0.43744,-0.06 z m -21.851059,-0.0952 c -0.09172,0 -0.22225,0.0423 -0.391584,0.13053 -0.05644,0.0917 -0.130527,0.21167 -0.218722,0.36336 -0.144639,0.40217 -0.246944,0.74083 -0.303389,1.01247 0.402167,-0.21166 0.712611,-0.42686 0.941917,-0.63852 0.172861,-0.19756 0.257528,-0.37395 0.257528,-0.52564 0,-0.10936 -0.02822,-0.19403 -0.08114,-0.254 -0.05292,-0.06 -0.119944,-0.0882 -0.20461,-0.0882 z m 0.377472,-0.57503 c 0.246944,0 0.440972,0.0635 0.578555,0.19403 0.137584,0.13053 0.208139,0.30339 0.208139,0.52211 0,0.22225 -0.07761,0.43745 -0.225777,0.64559 -0.151695,0.21166 -0.398639,0.41627 -0.744362,0.61383 -0.22225,0.127 -0.613833,0.31397 -1.17475,0.56797 -0.02117,0.127 -0.03175,0.26811 -0.03175,0.41275 0,0.20109 0.02469,0.33514 0.07761,0.39864 0.05292,0.067 0.130527,0.0988 0.236361,0.0988 0.112889,0 0.239889,-0.0318 0.381,-0.0988 0.201083,-0.0917 0.525639,-0.28928 0.970139,-0.59267 0.07761,0.10584 0.155222,0.20814 0.232833,0.31398 -0.807861,0.77611 -1.499306,1.16769 -2.074333,1.16769 -0.254,0 -0.448028,-0.0847 -0.582084,-0.254 -0.134053,-0.16933 -0.201081,-0.43039 -0.201081,-0.78317 0,-0.68438 0.208139,-1.36525 0.624417,-2.03905 0.47625,-0.77964 1.051277,-1.1677 1.725083,-1.1677 z m 27.664837,-0.007 c 0.0882,0 0.16227,0.0247 0.22225,0.067 0.06,0.0459 0.0917,0.0988 0.0917,0.16581 0,0.0317 -0.0177,0.11289 -0.0529,0.24342 -0.0635,0.25047 -0.12348,0.50094 -0.18345,0.74788 0.20814,-0.33513 0.56797,-0.66322 1.0795,-0.98425 0.24695,-0.15875 0.46214,-0.23988 0.64558,-0.23988 0.1517,0 0.27164,0.0529 0.35984,0.15169 0.0847,0.0988 0.13053,0.23283 0.13053,0.40569 0,0.10231 -0.0177,0.22578 -0.0529,0.37395 -0.0459,0.18344 -0.17287,0.61736 -0.38453,1.29822 -0.19403,0.62442 -0.29281,1.03717 -0.29281,1.23825 0,0.0459 0,0.0741 0.007,0.0811 0.004,0.007 0.004,0.0106 0,0.0106 0.067,0 0.18698,-0.0776 0.36337,-0.23283 0.14111,-0.13053 0.31044,-0.254 0.50094,-0.37042 0.0635,0.0882 0.13053,0.17992 0.19756,0.26811 -0.31045,0.35984 -0.61031,0.61384 -0.89959,0.76553 -0.24341,0.17992 -0.44097,0.26811 -0.58914,0.26811 -0.15169,0 -0.26811,-0.0529 -0.34925,-0.15875 -0.0811,-0.10583 -0.12347,-0.26458 -0.12347,-0.47978 0,-0.28927 0.17639,-0.99483 0.5327,-2.12019 0.0988,-0.36336 0.14816,-0.57503 0.14816,-0.63147 0,-0.0388 -0.0247,-0.0564 -0.0776,-0.0564 -0.1023,0 -0.24694,0.06 -0.43039,0.17992 -0.28222,0.18697 -0.55033,0.41981 -0.79727,0.6985 -0.06,0.13053 -0.127,0.37747 -0.21167,0.73378 -0.13053,0.56797 -0.26458,1.13947 -0.39511,1.70744 -0.29281,0 -0.58561,0 -0.87842,0 0.13406,-0.54327 0.24695,-1.03011 0.34572,-1.4605 0.13759,-0.59266 0.2787,-1.18533 0.41628,-1.778 0.0141,-0.067 0.0247,-0.10936 0.0247,-0.13052 0,-0.0176 0,-0.0282 0,-0.0282 -0.0282,0 -0.0847,0.0318 -0.17286,0.0917 -0.17639,0.11641 -0.37394,0.27516 -0.58561,0.47625 -0.0882,-0.0882 -0.17286,-0.17287 -0.25753,-0.26106 0.42333,-0.43039 0.762,-0.70908 1.016,-0.84314 0.25047,-0.13053 0.46919,-0.19755 0.65264,-0.19755 z m -38.844364,0 c 0.08819,0 0.162278,0.0247 0.215194,0.0706 0.05644,0.0459 0.08114,0.10936 0.08114,0.18345 0,0.0705 -0.02469,0.20108 -0.07761,0.38805 -0.07408,0.26458 -0.123472,0.43039 -0.148166,0.50095 0.659694,-0.762 1.199444,-1.143 1.622778,-1.143 0.134055,0 0.236361,0.0388 0.306916,0.11641 0.07408,0.0776 0.109361,0.18697 0.109361,0.33161 0,0.14111 -0.04586,0.33161 -0.141111,0.5715 0.246944,-0.3563 0.511528,-0.61383 0.783167,-0.7761 0.275166,-0.16228 0.493889,-0.24342 0.659694,-0.24342 0.15875,0 0.28575,0.0494 0.377472,0.14111 0.09172,0.0953 0.137584,0.23283 0.137584,0.41275 0,0.0988 -0.01764,0.21519 -0.04939,0.34572 -0.03175,0.13053 -0.148167,0.52564 -0.34925,1.17828 -0.243417,0.79728 -0.366889,1.26647 -0.366889,1.41464 0,0.0423 0.01058,0.0635 0.03175,0.0635 0.04233,0 0.08467,-0.0176 0.130528,-0.0459 0.169333,-0.11995 0.377472,-0.28575 0.617361,-0.49389 0.08467,0.0917 0.165805,0.18344 0.250472,0.27164 -0.08114,0.0917 -0.204611,0.18697 -0.370417,0.29633 -0.275166,0.28575 -0.500944,0.46567 -0.677333,0.53622 -0.123472,0.10584 -0.254,0.15875 -0.402167,0.15875 -0.123472,0 -0.232833,-0.0564 -0.3175,-0.16933 -0.08819,-0.10936 -0.134055,-0.25753 -0.134055,-0.4445 0,-0.15875 0.02469,-0.33867 0.06703,-0.54328 0.04586,-0.20814 0.176388,-0.65969 0.388055,-1.35819 0.15875,-0.51859 0.236361,-0.82903 0.236361,-0.92781 0,-0.0423 -0.01411,-0.0635 -0.04586,-0.0635 -0.05997,0 -0.130527,0.0141 -0.215194,0.0423 -0.289278,0.19402 -0.522111,0.40569 -0.6985,0.63147 -0.116417,0.15169 -0.218722,0.39511 -0.310445,0.73378 -0.208138,0.762 -0.370416,1.41111 -0.483305,1.95086 -0.282222,0 -0.564445,0 -0.846667,0 0.236361,-0.98778 0.469194,-1.97909 0.705556,-2.96686 0.04586,-0.20109 0.07055,-0.31398 0.07055,-0.33162 0,-0.0247 -0.0035,-0.0423 -0.01058,-0.0494 -0.0071,-0.007 -0.01764,-0.0106 -0.0388,-0.0106 -0.05997,0 -0.197556,0.0635 -0.41275,0.19403 -0.246945,0.20461 -0.437445,0.40217 -0.567973,0.59972 -0.130528,0.19756 -0.239889,0.50095 -0.335139,0.9137 -0.127,0.55033 -0.254,1.10066 -0.381,1.651 -0.282222,0 -0.567972,0 -0.850194,0 0.183444,-0.80434 0.370416,-1.60867 0.553861,-2.41653 0.141111,-0.58914 0.215194,-0.90664 0.215194,-0.9525 0,-0.0106 0.0035,-0.0141 0.01058,-0.0141 -0.09525,0 -0.34925,0.17639 -0.762,0.52917 -0.07408,-0.0952 -0.148167,-0.19403 -0.22225,-0.28928 0.331612,-0.35278 0.645584,-0.60325 0.938389,-0.75847 0.292806,-0.1517 0.529167,-0.22931 0.705556,-0.22931 z m 36.392554,-0.004 c 0.12347,0 0.22225,0.0317 0.29633,0.0917 0.0741,0.06 0.11289,0.14111 0.11289,0.24341 0,0.0988 -0.1023,0.49036 -0.31044,1.17475 -0.32456,1.09361 -0.48683,1.74978 -0.48683,1.9685 0,0.0247 0,0.0388 0.007,0.0459 0.003,0.007 0.003,0.0106 -0.004,0.0106 0.0741,0 0.33161,-0.1905 0.77258,-0.57503 0.0953,0.0917 0.18697,0.18344 0.28222,0.27164 -0.45508,0.45155 -0.79022,0.7373 -0.99836,0.85372 -0.20814,0.11995 -0.38453,0.17639 -0.52917,0.17639 -0.13758,0 -0.24694,-0.0423 -0.32808,-0.13053 -0.0847,-0.0847 -0.12347,-0.20108 -0.12347,-0.34925 0,-0.39864 0.23636,-1.35819 0.70908,-2.87514 0.007,-0.0317 0.0176,-0.0635 0.0212,-0.0917 0.003,-0.0212 0.003,-0.0423 0.007,-0.0635 -0.0212,0.004 -0.0423,0.007 -0.0635,0.0106 -0.0282,0.0106 -0.06,0.0282 -0.0952,0.0494 -0.067,0.0423 -0.25752,0.20461 -0.5715,0.48331 -0.1023,-0.0811 -0.20461,-0.15875 -0.31044,-0.23989 0.33514,-0.39864 0.63853,-0.67733 0.91017,-0.82903 0.26811,-0.14816 0.50447,-0.22578 0.70202,-0.22578 z m -30.321249,0 c 0.102305,0 0.1905,0.0282 0.254,0.0847 0.06703,0.06 0.102305,0.13759 0.102305,0.23989 0,0.0952 -0.01058,0.19403 -0.03528,0.29633 -0.02117,0.10231 -0.08467,0.28928 -0.186973,0.56092 0.370417,-0.45861 0.645584,-0.74436 0.829028,-0.86078 0.310445,-0.20108 0.599722,-0.30339 0.860778,-0.30339 0.194028,0 0.352778,0.0882 0.479778,0.25753 0.127,0.17286 0.1905,0.41981 0.1905,0.73731 0,0.77258 -0.243417,1.50636 -0.733778,2.20486 -0.490361,0.70203 -1.037167,1.05128 -1.647472,1.05128 -0.243417,0 -0.448028,-0.06 -0.610306,-0.18345 -0.127,0.50095 -0.254,1.00542 -0.381,1.50636 -0.01411,0.0564 -0.02117,0.11289 -0.02117,0.16581 0,0.0811 0.04233,0.15169 0.130528,0.21167 0.09172,0.0388 0.373945,0.0882 0.850195,0.14463 -0.02822,0.13759 -0.05645,0.27164 -0.08467,0.40923 -0.560917,-0.0423 -0.98425,-0.06 -1.266472,-0.06 -0.292806,0 -0.709083,0.0176 -1.248833,0.06 0.0247,-0.13758 0.05293,-0.27516 0.07762,-0.41628 0.261056,-0.0247 0.437444,-0.0847 0.532694,-0.17638 0.09172,-0.0917 0.179917,-0.28575 0.261056,-0.58914 0.275166,-1.15711 0.546805,-2.3107 0.821972,-3.46428 0.15875,-0.65264 0.236361,-1.01247 0.236361,-1.0795 0,-0.0176 -0.0071,-0.0247 -0.02117,-0.0247 -0.105833,0 -0.370416,0.19755 -0.786694,0.59972 -0.09172,-0.0917 -0.186969,-0.18345 -0.282219,-0.2787 0.310444,-0.39158 0.610305,-0.67028 0.903111,-0.83961 0.292805,-0.16933 0.553861,-0.254 0.776111,-0.254 z m 39.369999,-0.0953 c -0.23636,0.8255 -0.45861,1.61925 -0.67028,2.37773 -0.10936,0.46566 -0.1905,0.88547 -0.24694,1.25236 -0.0247,0.15875 -0.0388,0.36689 -0.0423,0.62441 -0.007,0.45509 -0.06,0.8255 -0.15522,1.10773 -0.13759,0.40216 -0.39511,0.72672 -0.77259,0.97014 -0.37394,0.24341 -0.81844,0.36688 -1.32997,0.36688 -0.44803,0 -0.8008,-0.10583 -1.06539,-0.32102 -0.26105,-0.21167 -0.39158,-0.46214 -0.39158,-0.74789 0,-0.27517 0.0953,-0.50447 0.28928,-0.68086 0.1658,-0.22931 0.48683,-0.46214 0.95602,-0.70203 0.0177,-0.0106 0.0388,-0.0176 0.06,-0.0282 -0.003,0 -0.007,0 -0.0106,0 -0.1023,-0.0247 -0.19402,-0.0847 -0.27516,-0.17992 -0.10584,-0.127 -0.15875,-0.29281 -0.15875,-0.49389 0,-0.58914 0.17639,-1.17475 0.52916,-1.7533 0.35278,-0.57856 0.77611,-1.01248 1.27,-1.30175 0.31398,-0.18345 0.70556,-0.27517 1.17123,-0.27517 0.0705,0 0.15522,0.004 0.254,0.007 0.0141,-0.0388 0.0282,-0.0811 0.0423,-0.12347 0.18344,-0.0317 0.36336,-0.067 0.5468,-0.0988 z m -15.43755,-0.0282 c -0.11995,0.43392 -0.23637,0.86783 -0.35631,1.30175 -0.14111,0.47272 -0.27164,1.01247 -0.39511,1.61572 -0.067,0.32456 -0.0988,0.5327 -0.0988,0.62442 0,0.0353 0.004,0.0494 0.0141,0.0494 0.0353,0 0.0988,-0.0282 0.1905,-0.0811 0.18697,-0.10936 0.39158,-0.25753 0.61736,-0.4445 0.0811,0.0953 0.16228,0.1905 0.24342,0.28575 -0.37748,0.36336 -0.62089,0.58208 -0.73025,0.65616 -0.20814,0.14112 -0.4057,0.24695 -0.5962,0.31398 -0.127,0.0459 -0.254,0.0705 -0.381,0.0705 -0.10936,0 -0.1905,-0.0282 -0.25047,-0.0811 -0.06,-0.0564 -0.0917,-0.13405 -0.0917,-0.23283 0,-0.06 0.0141,-0.13053 0.0423,-0.21872 0.06,-0.16934 0.12347,-0.3422 0.18345,-0.51153 -0.15875,0.30339 -0.41275,0.55033 -0.76553,0.73731 -0.27517,0.20108 -0.51859,0.29986 -0.73025,0.29986 -0.2152,0 -0.38453,-0.127 -0.51506,-0.381 -0.13053,-0.0847 -0.19755,-0.27517 -0.19755,-0.57503 0,-0.3422 0.0917,-0.72319 0.27164,-1.13594 0.18344,-0.41628 0.42686,-0.79023 0.73025,-1.12889 0.30691,-0.33867 0.63147,-0.58914 0.97013,-0.74789 0.26812,-0.127 0.61031,-0.18697 1.01953,-0.18697 0.0988,0 0.18345,0.004 0.254,0.0176 0.0353,-0.0565 0.0706,-0.11289 0.10231,-0.16934 0.15875,-0.0282 0.31397,-0.0529 0.46919,-0.0776 z m -13.783033,-0.067 c 0.130528,0 0.236361,0.0388 0.321028,0.11642 0.08114,0.0811 0.123472,0.17639 0.123472,0.28928 0,0.127 -0.06703,0.23988 -0.204611,0.33513 -0.05644,0.0423 -0.236361,0.0706 -0.529166,0.0917 -0.211667,0.0106 -0.395112,0.0811 -0.550334,0.20814 -0.264583,0.21519 -0.518583,0.52916 -0.762,0.93486 0.09878,0.45155 0.197556,0.90311 0.296334,1.35466 0.130527,0.61031 0.261055,1.05481 0.395111,1.34056 0.137583,0.28222 0.299861,0.50094 0.490361,0.64911 0.09878,0.0741 0.208139,0.11289 0.324555,0.11289 0.15875,0 0.271639,-0.0988 0.34925,-0.29986 0.07408,-0.19756 0.201084,-0.29986 0.377473,-0.29986 0.09172,0 0.169333,0.0353 0.236361,0.10936 0.0635,0.0705 0.09878,0.15522 0.09878,0.25753 0,0.18344 -0.09878,0.34572 -0.296333,0.49036 -0.194028,0.14111 -0.440972,0.21519 -0.737305,0.21519 -0.321028,0 -0.627945,-0.0988 -0.913695,-0.29986 -0.289278,-0.19756 -0.536222,-0.508 -0.740833,-0.93486 -0.204614,-0.42686 -0.377475,-1.07245 -0.522114,-1.93322 0.01764,0.067 -0.03528,0.19402 -0.165806,0.381 -0.402167,0.56091 -0.716139,0.92427 -0.945444,1.09361 -0.229306,0.1658 -0.451556,0.25047 -0.673806,0.25047 -0.162278,0 -0.299861,-0.0459 -0.409222,-0.13758 -0.109361,-0.0952 -0.165806,-0.20814 -0.165806,-0.34573 0,-0.10936 0.03881,-0.20813 0.116417,-0.28927 0.07761,-0.0847 0.169333,-0.127 0.275167,-0.127 0.112889,0 0.211666,0.0529 0.292805,0.15875 0.07761,0.0952 0.130528,0.14111 0.162278,0.14111 0.02822,0 0.05997,-0.007 0.09525,-0.0282 0.07056,-0.0388 0.169333,-0.12348 0.292806,-0.26106 0.186972,-0.20108 0.391583,-0.38806 0.606777,-0.55386 0.127,-0.26106 0.257528,-0.51858 0.384528,-0.77611 -0.0635,-0.2787 -0.127,-0.55739 -0.1905,-0.83608 -0.04586,-0.22225 -0.08819,-0.35984 -0.127,-0.4057 -0.03528,-0.0494 -0.07055,-0.0741 -0.102305,-0.0741 -0.02822,0 -0.0635,0.0141 -0.109362,0.0423 -0.201083,0.11289 -0.395111,0.23636 -0.582083,0.37042 -0.07055,-0.0952 -0.144639,-0.19403 -0.218722,-0.29281 0.363361,-0.32455 0.66675,-0.55386 0.92075,-0.68439 0.179917,-0.0988 0.321028,-0.14816 0.416278,-0.14816 0.15875,0 0.282222,0.0741 0.373944,0.22225 0.109361,0.17991 0.201083,0.53269 0.275167,1.0548 0.303389,-0.5468 0.610305,-0.93133 0.924278,-1.15358 0.310444,-0.22578 0.575027,-0.33867 0.797277,-0.33867 z m 10.205863,-0.0247 c 0.11994,0 0.22225,0.0423 0.30339,0.11994 0.0847,0.0811 0.127,0.17286 0.127,0.2787 0,0.10936 -0.0388,0.20108 -0.11642,0.27516 -0.0776,0.0741 -0.24342,0.15523 -0.50447,0.23989 -0.21872,0.0741 -0.39864,0.16228 -0.53622,0.26811 -0.13759,0.10231 -0.29281,0.26459 -0.45861,0.47978 -0.16934,0.21872 -0.28575,0.4057 -0.35278,0.56797 -0.067,0.16228 -0.17286,0.54328 -0.31045,1.143 -0.0776,0.32456 -0.15522,0.65264 -0.2293,0.9772 -0.29281,0 -0.585614,0 -0.878421,0 0.123474,-0.48331 0.246947,-0.96309 0.370417,-1.44639 0.134054,-0.55386 0.261054,-1.12184 0.388054,-1.70745 0.0212,-0.10936 0.0318,-0.17991 0.0318,-0.20814 0,-0.0106 0,-0.0176 -0.007,-0.0176 -0.0247,0 -0.0811,0.0282 -0.16933,0.0847 -0.0847,0.0564 -0.278694,0.21872 -0.578554,0.48331 -0.07761,-0.0847 -0.15875,-0.17286 -0.236363,-0.25753 0.328084,-0.37042 0.645584,-0.63853 0.956027,-0.80786 0.31045,-0.16581 0.55386,-0.24695 0.73025,-0.24695 0.0811,0 0.14817,0.0212 0.20461,0.067 0.0529,0.0423 0.0811,0.0988 0.0811,0.16934 0,0.0459 -0.0247,0.17638 -0.0776,0.39158 -0.06,0.22225 -0.12347,0.44803 -0.18697,0.67028 0.1976,-0.47273 0.49746,-0.88548 0.90668,-1.24531 0.20814,-0.18344 0.39158,-0.27869 0.54328,-0.27869 z m -27.901195,-1.3582 c -0.03528,0.14464 -0.07056,0.28928 -0.105833,0.43745 -0.384528,0.0247 -0.613834,0.0529 -0.684389,0.0882 -0.09172,0.0564 -0.162278,0.12347 -0.201084,0.19403 -0.05644,0.1023 -0.225777,0.69144 -0.511527,1.76036 -0.09172,0.32808 -0.327731,1.26647 -0.711553,2.81869 0.163336,0.0529 0.440619,0.0706 0.831497,0.0635 -0.03528,0.13406 -0.06703,0.27164 -0.102306,0.40923 -0.151694,0.007 -0.389113,-0.007 -0.706261,-0.0353 -0.201436,-0.0176 -0.443441,-0.0282 -0.725311,-0.0282 -0.294216,0 -0.590903,0.0176 -0.890764,0.0494 -0.100189,0.0141 -0.200377,0.0282 -0.300566,0.0423 0,0 0,0 0,0 0.02434,-0.14464 0.04904,-0.28575 0.07373,-0.42686 0.379589,-0.06 0.644525,-0.12347 0.794809,-0.19403 0.05009,-0.0247 0.09278,-0.06 0.128058,-0.10231 0.01976,-0.0247 0.05574,-0.11641 0.10795,-0.27869 0.05186,-0.16228 0.238125,-0.85019 0.557742,-2.06728 0.09207,-0.3175 0.282222,-1.04775 0.570794,-2.18722 -0.144639,-0.004 -0.409575,0.0247 -0.794456,0.0917 0.03669,-0.14111 0.07338,-0.28575 0.11042,-0.42686 0.170392,-0.0459 0.325261,-0.0776 0.464255,-0.0917 0.139348,-0.0141 0.454378,-0.0282 0.948267,-0.0388 0.440972,-0.0141 0.8255,-0.0388 1.146528,-0.0776 z m 38.410445,-0.40922 c 0.12347,0 0.22578,0.0388 0.31044,0.12347 0.0811,0.0847 0.12348,0.18697 0.12348,0.31045 0,0.15875 -0.0564,0.30339 -0.16934,0.42686 -0.11641,0.12347 -0.24694,0.18344 -0.39864,0.18344 -0.12347,0 -0.22225,-0.0388 -0.30339,-0.12347 -0.0811,-0.0847 -0.11994,-0.1905 -0.11994,-0.32456 0,-0.16227 0.0529,-0.30338 0.16228,-0.4198 0.10936,-0.11995 0.23989,-0.17639 0.39511,-0.17639 z m -12.61181,-0.37747 c 0.12348,0 0.22578,0.0459 0.30692,0.13405 0.0776,0.0882 0.11994,0.20109 0.11994,0.33867 0,0.26811 -0.14111,0.49742 -0.41627,0.68439 -0.2787,0.18697 -0.726727,0.27869 -1.344087,0.27869 -0.218724,0 -0.419807,-0.007 -0.606777,-0.0282 -0.0141,0.0423 -0.105834,0.39864 -0.27164,1.06892 -0.137583,0.53622 -0.27164,1.07597 -0.409223,1.61572 -0.08467,0.33161 -0.169334,0.66322 -0.254,0.99836 -0.08114,0.33514 -0.165804,0.67028 -0.250471,1.00542 0.144637,0.0141 0.282221,0.0212 0.423334,0.0212 0.201083,0 0.455083,-0.0247 0.75847,-0.0776 -0.02822,0.14464 -0.05644,0.29281 -0.08467,0.44098 -0.261053,0.0564 -0.465666,0.0847 -0.613833,0.0847 -0.137583,0 -0.36336,-0.0141 -0.677333,-0.0423 -0.218721,-0.0176 -0.416277,-0.0282 -0.592666,-0.0282 -0.303389,0 -0.656166,0.0282 -1.061861,0.0847 0.02469,-0.14464 0.05292,-0.29281 0.08114,-0.43745 0.345722,-0.0353 0.582083,-0.0953 0.712611,-0.18697 0.09172,-0.06 0.169334,-0.17286 0.236361,-0.33161 0.06703,-0.15875 0.232834,-0.75495 0.493889,-1.78859 0.197556,-0.81844 0.39864,-1.63688 0.599723,-2.45886 0.01058,-0.007 0.02117,-0.0141 0.03175,-0.0212 -0.123473,-0.004 -0.232833,-0.007 -0.32103,-0.007 -0.564443,0 -1.008943,0.06 -1.337026,0.17991 -0.324556,0.11642 -0.567972,0.28928 -0.726722,0.508 -0.15875,0.22225 -0.236361,0.45861 -0.236361,0.71261 0,0.0882 0.01058,0.15523 0.02822,0.20109 0.03175,0.067 0.07408,0.14816 0.137583,0.23989 0.165806,0.15522 0.250472,0.2928 0.250472,0.41275 0,0.11289 -0.04233,0.20461 -0.123472,0.28222 -0.08114,0.0776 -0.179917,0.11642 -0.296333,0.11642 -0.165806,0 -0.299861,-0.0741 -0.398639,-0.22931 -0.130524,-0.19755 -0.194024,-0.44803 -0.194024,-0.75141 0,-0.39864 0.123472,-0.78317 0.370417,-1.15712 0.246944,-0.37041 0.582083,-0.65969 1.012472,-0.8643 0.430389,-0.20108 0.945444,-0.30339 1.552222,-0.30339 0.282223,0 0.737306,0.0423 1.361723,0.12347 0.430387,0.0564 0.74436,0.0847 0.938387,0.0847 0.17639,0 0.296333,-0.0247 0.356307,-0.0741 0.05997,-0.0494 0.08819,-0.10936 0.08819,-0.1905 0,-0.0106 -0.004,-0.0459 -0.0106,-0.0988 -0.0106,-0.0706 -0.0177,-0.11995 -0.0177,-0.14817 0,-0.11289 0.0388,-0.20461 0.11289,-0.27869 0.0741,-0.0741 0.16581,-0.11289 0.27164,-0.11289 z m 11.40178,-0.26459 c 0.1517,0 0.27517,0.0388 0.37042,0.12348 0.0988,0.0847 0.14464,0.1905 0.14464,0.3175 0,0.12347 -0.0459,0.22577 -0.13406,0.30339 -0.0882,0.0811 -0.20814,0.11994 -0.35278,0.11994 -0.0882,0 -0.23989,-0.0141 -0.45155,-0.0459 -0.2152,-0.0317 -0.35631,-0.0494 -0.42686,-0.0494 -0.0847,0 -0.15875,0.0282 -0.22578,0.0811 -0.067,0.0529 -0.14111,0.19403 -0.21872,0.42333 -0.0388,0.11289 -0.14817,0.54681 -0.32456,1.2947 -0.22225,0.93839 -0.4445,1.87677 -0.66322,2.81516 -0.0776,0.32456 -0.11289,0.53975 -0.11289,0.64206 0,0.0529 0.0106,0.0811 0.0353,0.0811 0.0388,0 0.10583,-0.0212 0.20461,-0.06 0.0635,-0.0459 0.27164,-0.19403 0.63147,-0.4445 0.067,0.0953 0.13759,0.19402 0.20814,0.28927 -0.44802,0.39159 -0.77611,0.64559 -0.98425,0.76553 -0.29633,0.16581 -0.53269,0.25047 -0.71614,0.25047 -0.0988,0 -0.18344,-0.0317 -0.24694,-0.0882 -0.067,-0.06 -0.10231,-0.13053 -0.10231,-0.21167 0,-0.0635 0.0212,-0.15875 0.0564,-0.28575 0.0529,-0.14816 0.10584,-0.29986 0.16228,-0.44802 -0.27164,0.38805 -0.53622,0.65616 -0.80081,0.80433 -0.26105,0.14817 -0.50094,0.22225 -0.71966,0.22225 -0.20109,0 -0.36336,-0.0811 -0.49036,-0.24695 -0.13053,-0.16227 -0.19403,-0.39511 -0.19403,-0.6985 0,-0.45861 0.15522,-0.98072 0.46919,-1.56633 0.31398,-0.58561 0.66323,-1.02305 1.05128,-1.3088 0.38806,-0.28223 0.74789,-0.42687 1.0795,-0.42687 0.0741,0 0.1517,0.0106 0.23636,0.0318 0.13406,-0.56091 0.27164,-0.98777 0.41275,-1.27705 0.13759,-0.28928 0.3175,-0.53622 0.53975,-0.74789 0.21872,-0.21167 0.47272,-0.37395 0.75847,-0.48683 0.28575,-0.11642 0.55386,-0.17287 0.80433,-0.17287 z"
       style="fill:#000000;fill-opacity:1;stroke:#000000;stroke-width:0.25400001;stroke-linecap:butt;stroke-linejoin:round;stroke-miterlimit:10;stroke-dasharray:none;stroke-opacity:1"
       id="path3821-2"
       inkscape:connector-curvature="0" />
  </g>
</svg>
